<svg width="32" height="32" viewBox="0 0 32 32" fill="none" xmlns="http://www.w3.org/2000/svg">
  <defs>
    <linearGradient id="gradient" x1="0%" y1="0%" x2="100%" y2="100%">
      <stop offset="0%" style="stop-color:#a855f7;stop-opacity:1" />
      <stop offset="100%" style="stop-color:#7c3aed;stop-opacity:1" />
    </linearGradient>
  </defs>
  
  <!-- Background circle -->
  <circle cx="16" cy="16" r="15" fill="url(#gradient)" stroke="#4c1d95" stroke-width="2"/>
  
  <!-- Musical note symbol -->
  <path d="M12 8v12c0 1.5-1.5 3-3 3s-3-1.5-3-3 1.5-3 3-3c.5 0 1 .1 1.5.3V8h7v4c0 1.5-1.5 3-3 3s-3-1.5-3-3 1.5-3 3-3c.5 0 1 .1 1.5.3V8z" 
        fill="white" opacity="0.9"/>
  
  <!-- Small accent dots -->
  <circle cx="22" cy="10" r="2" fill="white" opacity="0.6"/>
  <circle cx="24" cy="14" r="1.5" fill="white" opacity="0.4"/>
</svg> 